<?xml version="1.0" encoding="utf-8"?>
<!-- Generator: Adobe Illustrator 16.0.0, SVG Export Plug-In . SVG Version: 6.00 Build 0)  -->
<!DOCTYPE svg PUBLIC "-//W3C//DTD SVG 1.1//EN" "http://www.w3.org/Graphics/SVG/1.1/DTD/svg11.dtd">
<svg version="1.1" id="Calque_1" xmlns="http://www.w3.org/2000/svg" xmlns:xlink="http://www.w3.org/1999/xlink" x="0px" y="0px"
	 width="562.5px" height="170.08px" viewBox="0 0 562.5 170.08" enable-background="new 0 0 562.5 170.08" xml:space="preserve">
<g>
	<path fill="#3C3C3B" d="M291.602,103.956c1.264,0,2.309,0.182,3.123,0.542c0.814,0.365,1.223,0.729,1.223,1.09v7.61
		c0,4.075-1.02,6.978-3.057,8.697c-2.039,1.721-4.965,2.584-8.766,2.584h-8.973c-7.885,0-11.822-3.759-11.822-11.281V41.709
		c0-4.078,0.993-7.045,2.99-8.903c1.993-1.857,4.938-2.789,8.833-2.789h8.973c3.801,0,6.727,0.886,8.766,2.653
		c2.037,1.766,3.057,4.644,3.057,8.63v6.524c0,0.271-0.408,0.542-1.223,0.815s-1.812,0.407-2.988,0.407
		c-1.271,0-2.291-0.112-3.059-0.338c-0.77-0.226-1.162-0.521-1.162-0.884v-6.524c0-1.27-0.33-2.333-1.016-3.195
		c-0.676-0.86-1.787-1.291-3.328-1.291h-7.068c-2.9,0-4.349,1.767-4.349,5.301v71.082c0,1.269,0.341,2.311,1.016,3.126
		c0.687,0.814,1.793,1.222,3.333,1.222h7.068c2.898,0,4.343-1.447,4.343-4.348v-7.61c0-0.274,0.367-0.61,1.092-1.02
		C289.336,104.16,290.328,103.956,291.602,103.956z"/>
	<path fill="#3C3C3B" d="M326.254,30.018c3.896,0,6.844,0.886,8.834,2.653c1.996,1.766,2.992,4.644,2.992,8.63v71.489
		c0,4.078-0.996,7.049-2.992,8.903c-1.99,1.857-4.938,2.786-8.834,2.786h-8.832c-3.898,0-6.861-0.885-8.902-2.651
		c-2.037-1.768-3.059-4.642-3.059-8.63V41.709c0-4.078,1.021-7.045,3.059-8.903c2.041-1.857,5.004-2.789,8.902-2.789H326.254z
		 M329.656,41.301c0-1.27-0.342-2.311-1.023-3.127c-0.68-0.814-1.787-1.223-3.326-1.223h-7.068c-1.449,0-2.541,0.498-3.262,1.495
		c-0.729,0.999-1.088,2.222-1.088,3.67v71.082c0,1.269,0.359,2.311,1.088,3.126c0.721,0.814,1.812,1.222,3.262,1.222h7.068
		c1.449,0,2.537-0.495,3.262-1.494c0.723-0.995,1.088-2.219,1.088-3.671V41.301z"/>
	<path fill="#3C3C3B" d="M386.057,31.378c0.18-0.543,0.836-1.018,1.971-1.427c1.133-0.408,2.604-0.61,4.414-0.61
		c1.816,0,3.332,0.227,4.559,0.677c1.221,0.456,1.834,1.045,1.834,1.769v91.741c0,0.363-0.342,0.725-1.021,1.087
		c-0.68,0.36-1.701,0.543-3.061,0.543c-1.357,0-2.443-0.183-3.256-0.543c-0.816-0.362-1.225-0.679-1.225-0.95V52.037
		c0-0.36-0.021-0.587-0.068-0.679c-0.049-0.088-0.119,0-0.207,0.271c-2.176,8.067-4.078,15.313-5.705,21.746
		c-0.73,2.719-1.426,5.416-2.107,8.087c-0.682,2.675-1.295,5.075-1.836,7.203c-0.543,2.131-1,3.853-1.359,5.164
		c-0.359,1.314-0.543,2.018-0.543,2.109c-0.182,0.45-0.588,0.838-1.221,1.152c-0.637,0.32-1.727,0.478-3.266,0.478
		c-1.537,0-2.648-0.157-3.328-0.478c-0.68-0.314-1.113-0.702-1.297-1.152c0-0.092-0.178-0.795-0.539-2.109
		c-0.357-1.312-0.818-3.033-1.357-5.164c-0.547-2.128-1.156-4.528-1.834-7.203c-0.68-2.671-1.381-5.368-2.105-8.087
		c-1.633-6.433-3.539-13.679-5.715-21.746c-0.09-0.359-0.133-0.225-0.133,0.408v71.627c0,0.271-0.408,0.588-1.221,0.95
		c-0.818,0.36-1.949,0.543-3.398,0.543c-1.359,0-2.379-0.183-3.059-0.543c-0.684-0.362-1.021-0.724-1.021-1.087V31.787
		c0-0.724,0.637-1.313,1.9-1.769c1.271-0.45,2.77-0.677,4.49-0.677c1.812,0,3.305,0.203,4.484,0.61
		c1.178,0.409,1.812,0.884,1.9,1.427l12.232,46.753L386.057,31.378z"/>
</g>
<g>
	<path fill="#3C3C3B" d="M452.252,29.341c1.271,0,2.287,0.182,3.064,0.543c0.766,0.363,1.152,0.681,1.152,0.951l-15.219,93.236
		c-0.092,0.452-0.637,0.747-1.633,0.883c-0.998,0.136-1.857,0.203-2.582,0.203c-0.637,0-1.451-0.067-2.445-0.203
		c-0.998-0.136-1.547-0.431-1.633-0.883l-15.219-93.236c-0.094-0.361,0.18-0.701,0.812-1.019c0.631-0.316,1.719-0.475,3.258-0.475
		c2.812,0,4.305,0.407,4.49,1.224l10.463,63.742c0.088,0.453,0.203,0.68,0.34,0.68c0.133,0,0.25-0.227,0.342-0.68l10.463-63.742
		c0.088-0.454,0.518-0.77,1.295-0.953C449.967,29.432,450.984,29.341,452.252,29.341z"/>
	<path fill="#3C3C3B" d="M470.332,125.157c-2.904,0-4.352-0.407-4.352-1.222V30.835c0-0.361,0.322-0.701,0.953-1.019
		c0.633-0.316,1.717-0.475,3.258-0.475c1.545,0,2.656,0.159,3.338,0.475c0.674,0.318,1.016,0.658,1.016,1.019v92.829
		C474.545,124.659,473.141,125.157,470.332,125.157z"/>
	<path fill="#3C3C3B" d="M513.686,49.455c-1.27,0-2.285-0.181-3.057-0.543c-0.771-0.363-1.158-0.681-1.158-0.952v-6.659
		c0-1.27-0.336-2.311-1.018-3.127c-0.68-0.814-1.791-1.223-3.326-1.223h-1.5h-5.574c-1.447,0-2.537,0.498-3.256,1.495
		c-0.729,0.999-1.09,2.222-1.09,3.67v11.416c0,2.538,0.59,4.825,1.77,6.863c1.17,2.04,2.668,4.011,4.482,5.913
		c1.812,1.903,3.762,3.804,5.846,5.707c2.078,1.902,4.033,3.99,5.844,6.254c1.814,2.264,3.307,4.778,4.486,7.542
		c1.176,2.766,1.766,5.913,1.766,9.444v17.534c0,4.078-0.996,7.049-2.99,8.903c-1.994,1.857-4.938,2.786-8.834,2.786h-8.834
		c-3.895,0-6.846-0.885-8.832-2.651c-1.998-1.768-2.994-4.642-2.994-8.63v-6.66c0-0.271,0.318-0.611,0.953-1.021
		c0.629-0.406,1.719-0.609,3.26-0.609c2.715,0,4.078,0.542,4.078,1.63v6.66c0,1.269,0.361,2.311,1.09,3.126
		c0.719,0.814,1.85,1.222,3.398,1.222h6.932c1.445,0,2.531-0.495,3.254-1.494c0.729-0.995,1.09-2.219,1.09-3.671V94.848
		c0-2.264-0.588-4.46-1.766-6.591c-1.174-2.128-2.672-4.258-4.482-6.385c-1.814-2.128-3.738-4.216-5.781-6.254
		c-2.035-2.038-3.963-4.122-5.771-6.25c-1.812-2.128-3.311-4.26-4.484-6.389c-1.18-2.129-1.77-4.327-1.77-6.592V41.709
		c0-4.078,0.996-7.045,2.994-8.903c1.986-1.857,4.938-2.789,8.832-2.789h8.834c3.896,0,6.84,0.886,8.834,2.653
		c1.994,1.766,2.99,4.644,2.99,8.63v6.659C517.9,48.957,516.494,49.455,513.686,49.455z"/>
	<path fill="#3C3C3B" d="M543.18,29.341c3.172,0,5.318,0.499,6.453,1.494c1.135,0.999,1.789,2.174,1.973,3.534
		c0,0.182,0.156,1.61,0.477,4.281c0.312,2.674,0.697,6.116,1.15,10.33c0.457,4.213,0.975,8.969,1.568,14.269
		c0.588,5.303,1.197,10.717,1.832,16.242c0.635,5.529,1.25,10.945,1.838,16.243c0.586,5.303,1.105,10.035,1.562,14.205
		c0.451,4.167,0.816,7.521,1.088,10.056c0.266,2.541,0.408,3.852,0.408,3.942c0.084,0.181-0.162,0.431-0.75,0.747
		c-0.588,0.315-1.695,0.475-3.332,0.475c-1.627,0-2.693-0.137-3.191-0.407c-0.496-0.271-0.795-0.498-0.881-0.679
		c0-0.089-0.123-1.086-0.346-2.988c-0.227-1.905-0.471-3.989-0.744-6.256c-0.273-2.263-0.523-4.347-0.746-6.248
		c-0.229-1.905-0.344-2.991-0.344-3.266c-0.088-0.631-0.402-0.95-0.953-0.95h-13.584c-0.729,0-1.137,0.272-1.225,0.817
		c0,0.181-0.137,1.222-0.41,3.124c-0.271,1.902-0.545,3.99-0.814,6.25c-0.27,2.269-0.523,4.375-0.746,6.321
		c-0.23,1.951-0.34,2.969-0.34,3.06c-0.092,0.271-0.387,0.544-0.887,0.814c-0.496,0.271-1.648,0.407-3.461,0.407
		c-1.818,0-2.949-0.115-3.4-0.339c-0.457-0.227-0.635-0.477-0.543-0.747c0-0.089,0.137-1.403,0.406-3.943
		c0.273-2.534,0.656-5.889,1.154-10.056c0.498-4.168,1.043-8.9,1.631-14.202c0.592-5.302,1.201-10.739,1.836-16.311
		s1.268-11.008,1.902-16.312c0.633-5.299,1.178-10.055,1.629-14.269c0.449-4.213,0.836-7.612,1.16-10.193
		c0.314-2.582,0.473-3.962,0.473-4.145c0.18-1.54,0.814-2.807,1.906-3.806C538.016,29.84,540.098,29.341,543.18,29.341z
		 M549.16,97.16c0.721,0,0.996-0.453,0.814-1.359c0-0.09-0.137-1.198-0.406-3.33c-0.273-2.127-0.615-4.868-1.018-8.224
		c-0.41-3.351-0.867-7.067-1.363-11.143c-0.5-4.078-0.994-8.064-1.492-11.961c-0.5-3.895-0.936-7.475-1.295-10.737
		c-0.359-3.263-0.633-5.752-0.816-7.476c-0.086-0.724-0.18-1.041-0.268-0.951c-0.092,0.092-0.186,0.407-0.273,0.951
		c-0.184,1.724-0.477,4.213-0.879,7.476c-0.416,3.262-0.844,6.842-1.297,10.737c-0.451,3.896-0.953,7.883-1.49,11.961
		c-0.547,4.076-1.02,7.792-1.43,11.143c-0.408,3.355-0.75,6.118-1.018,8.292c-0.271,2.175-0.408,3.308-0.408,3.399
		c0,0.813,0.273,1.222,0.816,1.222H549.16z"/>
</g>
<g>
	<g>
		<path fill="#F39200" d="M265.463,148.222c0.02-3.918,3.305-7.104,7.263-7.124c1.742,0,3.325,0.573,4.571,1.543
			c0.475,0.396,0.554,1.089,0.198,1.584c-0.396,0.494-1.128,0.573-1.583,0.218c-0.871-0.713-1.959-1.089-3.186-1.089
			c-1.366,0-2.632,0.554-3.562,1.425c-0.891,0.91-1.445,2.098-1.445,3.443s0.554,2.573,1.445,3.444
			c0.93,0.87,2.197,1.425,3.562,1.425c1.227,0,2.295-0.376,3.186-1.089c0.455-0.336,1.188-0.257,1.583,0.218
			c0.356,0.495,0.277,1.207-0.198,1.583c-1.247,0.97-2.83,1.544-4.571,1.544C268.768,155.347,265.483,152.16,265.463,148.222z"/>
		<path fill="#F39200" d="M282.677,153.902c-0.851-0.871-1.366-2.099-1.366-3.483c0-1.346,0.515-2.514,1.366-3.464
			c0.891-0.93,2.038-1.504,3.405-1.504c1.305,0,2.492,0.574,3.305,1.504c0.891,0.95,1.385,2.118,1.385,3.464
			c0,1.385-0.494,2.612-1.385,3.483c-0.812,0.93-2,1.504-3.305,1.504C284.715,155.406,283.568,154.832,282.677,153.902z
			 M283.469,150.419c0,0.851,0.257,1.544,0.712,2.098c0.494,0.475,1.148,0.732,1.9,0.732c0.691,0,1.324-0.258,1.82-0.732
			c0.494-0.554,0.771-1.247,0.771-2.098c0-0.812-0.277-1.524-0.771-2.059c-0.496-0.436-1.129-0.752-1.82-0.752
			c-0.752,0-1.406,0.316-1.9,0.752C283.726,148.895,283.469,149.607,283.469,150.419z"/>
		<path fill="#F39200" d="M306.918,147.034l-3.266,7.679c-0.02,0.04-0.039,0.1-0.078,0.159c0,0.02-0.021,0.02-0.021,0.02
			c-0.02,0.039-0.059,0.079-0.098,0.118c-0.02,0.021-0.041,0.021-0.041,0.021c-0.039,0.039-0.078,0.079-0.117,0.099
			c0,0.02-0.02,0.02-0.02,0.04c-0.061,0.039-0.1,0.079-0.18,0.099c0,0-0.02,0-0.02,0.02c-0.039,0-0.098,0.02-0.158,0.04
			c-0.02,0-0.02,0-0.039,0c-0.059,0.02-0.119,0.02-0.197,0.02c-0.061,0-0.119,0-0.18-0.02c-0.02,0-0.02,0-0.039,0
			c-0.039-0.021-0.078-0.04-0.139-0.04c-0.02-0.02-0.02-0.02-0.02-0.02c-0.02,0-0.02,0-0.02,0c-0.059-0.02-0.119-0.06-0.178-0.119
			c0,0,0,0,0-0.02c-0.061-0.02-0.08-0.06-0.119-0.099c0,0-0.039,0-0.039-0.021c-0.041-0.039-0.08-0.079-0.1-0.118
			c0,0-0.02,0-0.02-0.02c-0.039-0.06-0.061-0.119-0.08-0.159l-1.443-3.423l-1.406,3.423c-0.02,0.04-0.059,0.1-0.098,0.159v0.02
			c-0.041,0.039-0.08,0.079-0.119,0.118c0,0.021-0.02,0.021-0.02,0.021c-0.041,0.039-0.08,0.079-0.119,0.118
			c-0.08,0.06-0.119,0.1-0.178,0.119h-0.041c0,0-0.02,0-0.02,0.02c-0.039,0-0.098,0.02-0.119,0.04c-0.039,0-0.039,0-0.039,0
			c-0.078,0.02-0.139,0.02-0.197,0.02c-0.08,0-0.139,0-0.197-0.02c-0.021,0-0.021,0-0.061,0c-0.039-0.021-0.078-0.04-0.119-0.04
			c-0.02-0.02-0.02-0.02-0.039-0.02c-0.059-0.02-0.139-0.06-0.178-0.119c-0.02,0-0.02,0-0.02-0.02
			c-0.02-0.02-0.061-0.06-0.119-0.099c0,0,0,0-0.039-0.021c-0.02-0.039-0.061-0.079-0.08-0.118c-0.02,0-0.02,0-0.02-0.02
			c-0.039-0.06-0.059-0.119-0.1-0.159l-3.244-7.679c-0.238-0.534,0.02-1.128,0.572-1.365c0.477-0.218,1.09,0.02,1.307,0.594
			l2.336,5.324l1.385-3.306c0.178-0.396,0.555-0.633,0.971-0.633c0.436,0,0.811,0.237,0.969,0.633l1.406,3.306l2.334-5.324
			c0.199-0.574,0.832-0.812,1.326-0.594C306.879,145.906,307.156,146.5,306.918,147.034z"/>
		<path fill="#F39200" d="M312.494,153.902c-0.852-0.871-1.365-2.099-1.365-3.483c0-1.346,0.514-2.514,1.365-3.464
			c0.891-0.93,2.039-1.504,3.404-1.504c1.307,0,2.494,0.574,3.305,1.504c0.891,0.95,1.387,2.118,1.387,3.464
			c0,1.385-0.496,2.612-1.387,3.483c-0.811,0.93-1.998,1.504-3.305,1.504C314.533,155.406,313.385,154.832,312.494,153.902z
			 M313.287,150.419c0,0.851,0.256,1.544,0.711,2.098c0.496,0.475,1.148,0.732,1.9,0.732c0.693,0,1.326-0.258,1.82-0.732
			c0.496-0.554,0.771-1.247,0.771-2.098c0-0.812-0.275-1.524-0.771-2.059c-0.494-0.436-1.127-0.752-1.82-0.752
			c-0.752,0-1.404,0.316-1.9,0.752C313.543,148.895,313.287,149.607,313.287,150.419z"/>
		<path fill="#F39200" d="M330.502,146.5c0,0.555-0.457,1.049-1.051,1.049c-0.455,0-0.85,0.119-1.188,0.376
			c-0.375,0.238-0.672,0.574-0.91,0.95c-0.475,0.634-0.711,1.386-0.811,1.662v3.761c0,0.574-0.494,1.049-1.088,1.049
			c-0.574,0-1.049-0.475-1.049-1.049V146.5c0-0.573,0.475-1.029,1.049-1.029c0.594,0,1.088,0.456,1.088,1.029v0.139
			c0.119-0.139,0.277-0.297,0.416-0.396c0.652-0.436,1.504-0.792,2.492-0.772C330.045,145.471,330.502,145.927,330.502,146.5z"/>
		<path fill="#F39200" d="M333.943,154.258v-11.676c0-0.594,0.475-1.089,1.088-1.089s1.107,0.495,1.107,1.089v6.848l4.059-4.058
			c0.414-0.415,1.127-0.415,1.543,0c0.436,0.436,0.436,1.128,0,1.544l-2.969,2.969l3.047,3.661c0.377,0.475,0.318,1.167-0.158,1.544
			c-0.197,0.178-0.455,0.257-0.691,0.257c-0.316,0-0.635-0.139-0.832-0.396l-2.908-3.523l-1.09,1.089v1.741
			c0,0.594-0.494,1.089-1.107,1.089S333.943,154.852,333.943,154.258z"/>
		<path fill="#F39200" d="M348.031,142.978c0,0.594-0.455,1.089-1.07,1.089c-0.594,0-1.068-0.495-1.068-1.089v-0.416
			c0-0.594,0.475-1.068,1.068-1.068c0.615,0,1.07,0.475,1.07,1.068V142.978z M348.031,146.56v7.719c0,0.594-0.455,1.068-1.07,1.068
			c-0.594,0-1.068-0.475-1.068-1.068v-7.719c0-0.633,0.475-1.089,1.068-1.089C347.576,145.471,348.031,145.927,348.031,146.56z"/>
		<path fill="#F39200" d="M360.535,149.567v4.73c0,0.574-0.455,1.049-1.027,1.049c-0.555,0-1.049-0.475-1.049-1.049v-4.73
			c0-1.107-0.932-1.998-2.059-1.998c-1.109,0-1.98,0.891-1.98,1.998v4.73c0,0.06,0,0.119-0.039,0.198
			c-0.098,0.475-0.533,0.851-1.049,0.851c-0.594,0-1.049-0.475-1.049-1.049v-4.73V146.5c0-0.573,0.455-1.049,1.049-1.049
			c0.416,0,0.791,0.237,0.971,0.613c0.594-0.376,1.326-0.613,2.098-0.613C358.695,145.451,360.535,147.331,360.535,149.567z"/>
		<path fill="#F39200" d="M374.109,150.458v3.682c0,2.593-2.117,4.75-4.75,4.75c-0.732,0-1.465-0.179-2.078-0.495
			c-0.514-0.237-0.752-0.891-0.475-1.425c0.258-0.534,0.871-0.732,1.426-0.495c0.336,0.179,0.711,0.277,1.127,0.277
			c1.287,0,2.336-0.91,2.592-2.118c-0.711,0.495-1.621,0.792-2.592,0.792c-1.307,0-2.514-0.574-3.363-1.504
			c-0.852-0.871-1.387-2.098-1.387-3.483c0-1.365,0.535-2.593,1.387-3.522c0.85-0.891,2.057-1.465,3.363-1.465
			c1.029,0,1.939,0.316,2.652,0.831c0.1-0.475,0.533-0.831,1.049-0.831c0.594,0,1.049,0.476,1.049,1.049v3.938V150.458z
			 M371.992,150.438c0-0.792-0.316-1.544-0.752-2.019c-0.516-0.554-1.129-0.851-1.881-0.851c-0.693,0-1.346,0.297-1.82,0.851
			c-0.475,0.475-0.791,1.227-0.791,2.019c0,0.831,0.316,1.583,0.791,2.038c0.475,0.535,1.127,0.812,1.82,0.812
			c0.752,0,1.365-0.276,1.881-0.812C371.676,152.021,371.992,151.27,371.992,150.438z"/>
		<path fill="#F39200" d="M385.801,153.843l4.848-11.538c0.238-0.554,0.871-0.812,1.445-0.574c0.533,0.218,0.791,0.871,0.553,1.405
			l-4.848,11.558c-0.178,0.416-0.594,0.653-1.01,0.653c-0.119,0-0.277-0.02-0.395-0.079
			C385.82,155.05,385.562,154.396,385.801,153.843z"/>
		<path fill="#F39200" d="M402.164,154.258v-11.676c0-0.614,0.475-1.089,1.088-1.089h0.02c0,0,0,0,0.039,0h6.412
			c0.574,0,1.09,0.475,1.09,1.089c0,0.613-0.516,1.108-1.09,1.108h-5.363v3.621h4.611c0.594,0,1.09,0.515,1.09,1.089
			c0,0.613-0.496,1.108-1.09,1.108h-4.611v3.642h5.363c0.574,0,1.09,0.494,1.09,1.107c0,0.594-0.516,1.089-1.09,1.089h-6.412
			c-0.039,0-0.039-0.02-0.039-0.02l-0.02,0.02C402.639,155.347,402.164,154.852,402.164,154.258z"/>
		<path fill="#F39200" d="M414.053,152.517c0.357-0.475,1.049-0.534,1.484-0.158c0.516,0.436,1.406,0.891,2.178,0.871
			c0.535,0,1.029-0.179,1.346-0.376c0.277-0.238,0.355-0.436,0.355-0.594c0-0.1-0.02-0.139-0.059-0.198
			c-0.02-0.06-0.1-0.139-0.258-0.237c-0.277-0.198-0.871-0.416-1.582-0.555h-0.02c-0.615-0.118-1.209-0.276-1.723-0.515
			c-0.535-0.257-1.01-0.613-1.365-1.147c-0.219-0.356-0.336-0.792-0.336-1.247c0-0.91,0.514-1.682,1.166-2.177
			c0.693-0.475,1.525-0.732,2.436-0.732c1.365,0,2.334,0.653,2.969,1.089c0.475,0.316,0.613,0.97,0.316,1.464
			c-0.316,0.476-0.971,0.614-1.465,0.277c-0.633-0.415-1.188-0.732-1.82-0.732c-0.496,0-0.932,0.158-1.188,0.356
			c-0.258,0.179-0.316,0.356-0.316,0.455c0,0.079,0,0.1,0.039,0.158c0.02,0.04,0.078,0.119,0.217,0.198
			c0.258,0.178,0.773,0.356,1.445,0.475l0.02,0.021h0.02c0.654,0.118,1.268,0.297,1.842,0.573c0.533,0.238,1.068,0.614,1.404,1.168
			c0.238,0.396,0.377,0.851,0.377,1.307c0,0.97-0.535,1.78-1.248,2.295c-0.713,0.495-1.604,0.792-2.572,0.792
			c-1.543-0.02-2.73-0.732-3.523-1.365C413.756,153.625,413.697,152.952,414.053,152.517z"/>
		<path fill="#F39200" d="M425.115,157.999v-7.561c0,0,0,0,0-0.02V146.5c0-0.573,0.475-1.049,1.049-1.049
			c0.553,0,1.008,0.376,1.088,0.812c0.732-0.475,1.682-0.812,2.691-0.812c2.633,0,4.789,2.256,4.789,4.968
			c0,2.711-2.156,4.908-4.789,4.908c-0.99,0-1.939-0.297-2.652-0.812v3.483c0,0.554-0.494,1.068-1.127,1.068
			C425.59,159.067,425.115,158.553,425.115,157.999z M427.291,150.419c0,0.771,0.258,1.523,0.771,1.979
			c0.496,0.555,1.148,0.832,1.881,0.832c0.674,0,1.346-0.277,1.859-0.832c0.457-0.455,0.773-1.207,0.773-1.979
			c0-0.772-0.316-1.484-0.773-1.999c-0.514-0.534-1.186-0.812-1.859-0.812c-0.732,0-1.385,0.277-1.881,0.812
			C427.549,148.935,427.291,149.646,427.291,150.419z"/>
		<path fill="#F39200" d="M447.395,150.419v3.879c0,0.574-0.475,1.049-1.049,1.049c-0.514,0-0.91-0.376-1.029-0.851
			c-0.752,0.534-1.643,0.851-2.631,0.851c-1.346,0-2.514-0.554-3.365-1.444c-0.852-0.911-1.346-2.138-1.346-3.483
			c0-1.365,0.494-2.593,1.346-3.483c0.852-0.91,2.02-1.484,3.365-1.484c0.988,0,1.879,0.337,2.631,0.871
			c0.119-0.495,0.516-0.871,1.029-0.871c0.574,0,1.049,0.476,1.049,1.069V150.419z M445.297,150.419
			c0-0.831-0.297-1.544-0.771-2.038c-0.475-0.535-1.148-0.812-1.84-0.812c-0.713,0-1.387,0.276-1.842,0.812
			c-0.475,0.494-0.752,1.207-0.752,2.038c0,0.812,0.277,1.523,0.752,2.038c0.455,0.495,1.129,0.772,1.842,0.772
			c0.691,0,1.365-0.277,1.84-0.772C445,151.942,445.297,151.23,445.297,150.419z"/>
		<path fill="#F39200" d="M451.428,150.419c0-2.751,2.297-4.948,5.027-4.968c1.188,0,2.297,0.436,3.146,1.089
			c0.455,0.356,0.535,1.029,0.219,1.464c-0.396,0.476-1.029,0.555-1.484,0.198c-0.516-0.376-1.148-0.633-1.881-0.633
			c-1.604,0-2.928,1.325-2.928,2.85c0,1.523,1.324,2.83,2.928,2.83c0.713,0,1.365-0.258,1.881-0.634
			c0.436-0.336,1.088-0.257,1.484,0.218c0.316,0.436,0.236,1.069-0.219,1.465c-0.85,0.613-1.959,1.049-3.146,1.049
			C453.725,155.347,451.428,153.13,451.428,150.419z"/>
		<path fill="#F39200" d="M463.279,150.399c0.021-2.692,2.119-4.948,4.83-4.948c2.572,0,4.611,1.92,4.77,4.592
			c0,0.02,0,0.06,0,0.099c0,0.04,0,0.139-0.02,0.179c-0.061,0.475-0.475,0.791-1.029,0.791h-6.293
			c0.098,0.455,0.316,0.97,0.672,1.307c0.416,0.475,1.207,0.831,1.9,0.891c0.713,0.059,1.562-0.119,2.059-0.495
			c0.414-0.436,1.227-0.376,1.484-0.06c0.256,0.277,0.455,0.871,0,1.286c-0.971,0.891-2.139,1.307-3.543,1.307
			C465.398,155.327,463.301,153.091,463.279,150.399z M465.438,149.43h5.602c-0.199-0.792-1.209-1.96-2.93-2.099
			C466.428,147.41,465.596,148.618,465.438,149.43z"/>
		<path fill="#F39200" d="M490.941,152.081h-4.809l-0.969,2.573c-0.18,0.436-0.594,0.692-1.029,0.692
			c-0.139,0-0.258-0.02-0.377-0.06c-0.574-0.218-0.85-0.851-0.652-1.425l4.373-11.656c0.178-0.436,0.613-0.713,1.049-0.693
			c0.455-0.02,0.871,0.258,1.049,0.693l4.375,11.656c0.197,0.574-0.08,1.207-0.654,1.425c-0.098,0.04-0.236,0.06-0.375,0.06
			c-0.436,0-0.852-0.257-1.01-0.692L490.941,152.081z M490.131,149.904l-1.604-4.255l-1.602,4.255H490.131z"/>
		<path fill="#F39200" d="M500.143,144.798v0.277h0.594c0.594,0,1.088,0.476,1.088,1.089c0,0.594-0.494,1.088-1.088,1.088h-0.594
			v6.986c0,0.594-0.475,1.089-1.088,1.089c-0.615,0-1.09-0.495-1.09-1.089v-6.986h-0.514c-0.613,0-1.109-0.494-1.109-1.088
			c0-0.613,0.496-1.089,1.109-1.089h0.514v-0.277c0-0.731,0.08-1.365,0.377-1.939c0.277-0.594,0.83-1.049,1.424-1.227
			c0.396-0.119,0.773-0.158,1.188-0.158c0.594,0,1.09,0.494,1.09,1.088c0,0.614-0.496,1.108-1.09,1.108
			c-0.256,0-0.436,0.021-0.514,0.06c-0.08,0.02-0.1,0.04-0.119,0.06C500.301,143.789,500.143,144.066,500.143,144.798z"/>
		<path fill="#F39200" d="M508.154,144.798v0.277h0.594c0.594,0,1.09,0.476,1.09,1.089c0,0.594-0.496,1.088-1.09,1.088h-0.594v6.986
			c0,0.594-0.475,1.089-1.088,1.089s-1.088-0.495-1.088-1.089v-6.986h-0.516c-0.613,0-1.107-0.494-1.107-1.088
			c0-0.613,0.494-1.089,1.107-1.089h0.516v-0.277c0-0.731,0.078-1.365,0.375-1.939c0.277-0.594,0.832-1.049,1.426-1.227
			c0.396-0.119,0.771-0.158,1.188-0.158c0.594,0,1.088,0.494,1.088,1.088c0,0.614-0.494,1.108-1.088,1.108
			c-0.258,0-0.436,0.021-0.516,0.06c-0.078,0.02-0.098,0.04-0.117,0.06C508.312,143.789,508.154,144.066,508.154,144.798z"/>
		<path fill="#F39200" d="M520.998,150.419v3.879c0,0.574-0.475,1.049-1.049,1.049c-0.516,0-0.91-0.376-1.029-0.851
			c-0.752,0.534-1.643,0.851-2.633,0.851c-1.346,0-2.514-0.554-3.363-1.444c-0.852-0.911-1.346-2.138-1.346-3.483
			c0-1.365,0.494-2.593,1.346-3.483c0.85-0.91,2.018-1.484,3.363-1.484c0.99,0,1.881,0.337,2.633,0.871
			c0.119-0.495,0.514-0.871,1.029-0.871c0.574,0,1.049,0.476,1.049,1.069V150.419z M518.9,150.419c0-0.831-0.297-1.544-0.771-2.038
			c-0.477-0.535-1.148-0.812-1.842-0.812c-0.713,0-1.385,0.276-1.84,0.812c-0.475,0.494-0.752,1.207-0.752,2.038
			c0,0.812,0.277,1.523,0.752,2.038c0.455,0.495,1.127,0.772,1.84,0.772c0.693,0,1.365-0.277,1.842-0.772
			C518.604,151.942,518.9,151.23,518.9,150.419z"/>
		<path fill="#F39200" d="M527.881,142.978c0,0.594-0.455,1.089-1.068,1.089c-0.594,0-1.068-0.495-1.068-1.089v-0.416
			c0-0.594,0.475-1.068,1.068-1.068c0.613,0,1.068,0.475,1.068,1.068V142.978z M527.881,146.56v7.719
			c0,0.594-0.455,1.068-1.068,1.068c-0.594,0-1.068-0.475-1.068-1.068v-7.719c0-0.633,0.475-1.089,1.068-1.089
			C527.426,145.471,527.881,145.927,527.881,146.56z"/>
		<path fill="#F39200" d="M538.23,146.5c0,0.555-0.455,1.049-1.049,1.049c-0.455,0-0.852,0.119-1.188,0.376
			c-0.377,0.238-0.674,0.574-0.91,0.95c-0.475,0.634-0.713,1.386-0.812,1.662v3.761c0,0.574-0.494,1.049-1.088,1.049
			c-0.574,0-1.049-0.475-1.049-1.049V146.5c0-0.573,0.475-1.029,1.049-1.029c0.594,0,1.088,0.456,1.088,1.029v0.139
			c0.119-0.139,0.277-0.297,0.416-0.396c0.654-0.436,1.504-0.792,2.494-0.772C537.775,145.471,538.23,145.927,538.23,146.5z"/>
		<path fill="#F39200" d="M539.99,150.399c0.02-2.692,2.117-4.948,4.828-4.948c2.574,0,4.611,1.92,4.77,4.592c0,0.02,0,0.06,0,0.099
			c0,0.04,0,0.139-0.02,0.179c-0.059,0.475-0.475,0.791-1.029,0.791h-6.293c0.1,0.455,0.316,0.97,0.674,1.307
			c0.414,0.475,1.207,0.831,1.898,0.891c0.713,0.059,1.564-0.119,2.059-0.495c0.416-0.436,1.227-0.376,1.484-0.06
			c0.258,0.277,0.455,0.871,0,1.286c-0.969,0.891-2.137,1.307-3.543,1.307C542.107,155.327,540.01,153.091,539.99,150.399z
			 M542.146,149.43h5.602c-0.197-0.792-1.207-1.96-2.93-2.099C543.137,147.41,542.305,148.618,542.146,149.43z"/>
		<path fill="#F39200" d="M553.107,152.517c0.355-0.475,1.049-0.534,1.484-0.158c0.514,0.436,1.404,0.891,2.176,0.871
			c0.535,0,1.029-0.179,1.348-0.376c0.275-0.238,0.355-0.436,0.355-0.594c0-0.1-0.02-0.139-0.059-0.198
			c-0.021-0.06-0.1-0.139-0.258-0.237c-0.277-0.198-0.871-0.416-1.584-0.555h-0.02c-0.613-0.118-1.207-0.276-1.723-0.515
			c-0.533-0.257-1.008-0.613-1.365-1.147c-0.217-0.356-0.336-0.792-0.336-1.247c0-0.91,0.514-1.682,1.168-2.177
			c0.693-0.475,1.523-0.732,2.434-0.732c1.365,0,2.336,0.653,2.969,1.089c0.475,0.316,0.613,0.97,0.316,1.464
			c-0.316,0.476-0.969,0.614-1.465,0.277c-0.633-0.415-1.188-0.732-1.82-0.732c-0.494,0-0.93,0.158-1.188,0.356
			c-0.256,0.179-0.316,0.356-0.316,0.455c0,0.079,0,0.1,0.039,0.158c0.021,0.04,0.08,0.119,0.219,0.198
			c0.258,0.178,0.771,0.356,1.445,0.475l0.02,0.021h0.02c0.652,0.118,1.266,0.297,1.84,0.573c0.535,0.238,1.068,0.614,1.406,1.168
			c0.236,0.396,0.375,0.851,0.375,1.307c0,0.97-0.533,1.78-1.246,2.295c-0.713,0.495-1.604,0.792-2.574,0.792
			c-1.543-0.02-2.73-0.732-3.521-1.365C552.811,153.625,552.752,152.952,553.107,152.517z"/>
	</g>
</g>
<g>
	<g>
		<linearGradient id="SVGID_1_" gradientUnits="userSpaceOnUse" x1="-37.0962" y1="-27.936" x2="270.0729" y2="222.2959">
			<stop  offset="0.3184" style="stop-color:#F98008"/>
			<stop  offset="1" style="stop-color:#F96108"/>
		</linearGradient>
		<polygon fill="url(#SVGID_1_)" points="110.929,169.108 0,169.108 0,0.543 202.646,0.543 191.043,41.869 41.325,41.869 
			41.325,127.783 110.929,127.783 		"/>
	</g>
	<g>
		<linearGradient id="SVGID_2_" gradientUnits="userSpaceOnUse" x1="-3.1738" y1="-69.5645" x2="303.9872" y2="180.6608">
			<stop  offset="0.3184" style="stop-color:#F98008"/>
			<stop  offset="1" style="stop-color:#F96108"/>
		</linearGradient>
		<polygon fill="url(#SVGID_2_)" points="176.952,127.783 166.935,127.783 166.935,56.006 120.535,56.006 120.535,169.108 
			165.306,168.928 202.28,168.928 214.266,127.783 251.491,0 213.129,0 		"/>
	</g>
</g>
</svg>
